<svg width="500" height="500" viewBox="0 0 500 500" fill="none" xmlns="http://www.w3.org/2000/svg">
<path d="M296.55 348C265.65 345.6 232.05 345.6 200.55 348C199.05 348 198.15 347.7 197.55 346.5C196.35 343.2 196.05 339.3 196.05 336.9C196.05 334.8 196.95 334.2 198.75 333.6L234.75 323.7V162.9L179.25 164.1L172.05 206.1C171.45 208.8 170.85 209.4 167.85 208.8L159.45 207.3C156.75 206.7 156.15 206.4 155.85 204.9C154.05 183 154.95 168.6 156.45 145.5C156.45 144.3 157.05 144 158.55 144C222.45 145.2 283.05 145.2 342.45 144C343.95 144 344.55 144.3 344.55 145.5C346.05 168.6 346.95 183 345.15 204.9C344.85 206.4 344.25 206.7 341.55 207.3L332.85 208.8C329.85 209.4 329.25 208.8 328.65 206.1L321.45 164.1L266.25 162.9V307.2C266.25 320.4 269.25 324.6 281.55 327.6L300.45 332.4C302.55 333 303.15 333.6 302.85 335.4C302.55 339.3 301.35 343.8 299.55 346.5C298.65 347.7 298.05 348 296.55 348Z" fill="#111111"/>
</svg>
