<svg width="500" height="500" viewBox="0 0 500 500" fill="none" xmlns="http://www.w3.org/2000/svg">
<path d="M211.389 350.9L207.789 339.5C227.589 335 234.789 330.5 234.789 313.4V167.6L203.289 167.9C192.189 167.9 188.289 169.1 185.889 176.6L175.089 208.4H161.589L162.789 152L165.189 149C189.789 152.6 199.089 152.6 210.789 152.6H288.189C299.889 152.6 309.189 152.6 333.789 149L336.189 152L337.389 208.4H323.889L313.089 176.6C310.689 169.1 306.789 167.9 295.689 167.9L264.189 167.6V332.3L291.189 339.5L287.589 350.9C280.989 350.3 264.189 349.4 249.489 349.4C234.489 349.4 217.989 350.3 211.389 350.9Z" fill="#060808"/>
</svg>
