<svg width="500" height="500" viewBox="0 0 500 500" fill="none" xmlns="http://www.w3.org/2000/svg">
<path d="M341.458 130C344.458 130 345.658 130.9 346.258 132.7C348.058 137.8 354.658 184.3 354.658 187.3C354.658 189.4 345.058 196.9 341.158 196.9C337.858 196.9 331.558 148.3 296.458 148.3H280.558C272.158 148.3 269.158 152.8 269.158 240.1C269.158 331.6 273.058 337.3 281.758 337.3H301.558C303.058 337.3 303.658 338.5 303.658 340.3C303.658 343 297.658 355.3 294.358 355.3C290.158 355.3 258.358 355 249.058 355C239.758 355 208.858 355.3 204.058 355.3C201.358 355.3 194.758 343 194.758 340.3C194.758 338.5 195.958 337.3 196.858 337.3H216.658C225.958 337.3 229.858 331.6 229.858 240.1C229.858 152.8 226.858 148.3 218.758 148.3H202.858C167.458 148.3 162.058 196.9 158.758 196.9C154.858 196.9 145.258 189.4 145.258 187.3C145.258 184.3 151.858 137.8 153.658 132.7C154.258 130.9 155.458 130 158.458 130H341.458Z" fill="#111111"/>
</svg>
