<svg width="500" height="500" viewBox="0 0 500 500" fill="none" xmlns="http://www.w3.org/2000/svg">
<path d="M205.068 344.6C203.868 344.6 203.268 344.3 202.968 344C201.768 342.8 200.568 337.1 200.568 334.7C200.568 333.8 200.568 333.2 201.168 332.6C203.868 329.9 224.268 326.3 234.768 323.3C235.968 314.3 236.568 303.2 236.568 249.2V162.2C205.068 162.2 198.468 163.1 188.868 164.3C183.768 175.1 178.668 194.9 176.568 197C175.968 197.6 175.368 197.6 174.468 197.6C171.168 197.6 165.768 196.4 164.868 195.5C164.568 195.2 164.268 194.6 164.268 193.7C164.268 191 166.668 165.8 166.668 146.6C166.668 144.5 169.068 142.1 170.568 142.1C175.668 142.1 179.868 143.6 236.568 143.6H262.368C319.068 143.6 323.268 142.1 328.368 142.1C329.868 142.1 332.268 144.5 332.268 146.6C332.268 165.8 334.668 191 334.668 193.7C334.668 194.6 334.368 195.2 334.068 195.5C333.168 196.4 327.768 197.6 324.468 197.6C323.568 197.6 322.968 197.6 322.368 197C320.268 194.9 315.168 175.1 310.068 164.3C300.468 163.1 293.868 162.2 262.368 162.2V323.9C278.868 325.7 298.968 330.8 300.768 332.6C301.068 332.9 301.368 333.5 301.368 334.7C301.368 337.1 300.168 342.8 298.968 344C298.668 344.3 298.068 344.6 296.868 344.6C293.868 344.6 267.468 343.4 249.768 343.4C232.968 343.4 208.968 344.6 205.068 344.6Z" fill="#FFFAF2"/>
</svg>
