<svg width="500" height="500" viewBox="0 0 500 500" fill="none" xmlns="http://www.w3.org/2000/svg">
<path d="M203.9 147.1C179.6 147.1 172.4 171.4 168.8 180.7C166.7 186.4 162.8 187.9 160.1 187.9C155.6 187.9 151.4 185.5 151.4 179.2C151.4 174.1 154.1 167.8 156.2 140.8C156.8 131.2 162.2 128.5 168.8 128.5C172.7 128.5 182.6 130 192.8 130H306.2C316.4 130 326.3 128.5 330.2 128.5C337.1 128.5 342.2 131.2 343.1 140.8C344.9 167.8 347.6 174.1 347.6 179.2C347.6 185.5 343.7 187.9 339.2 187.9C336.2 187.9 332.6 186.4 330.2 180.7C326.6 171.4 319.4 147.1 295.4 147.1H263V326.5C263 337.6 280.1 338.2 287.6 339.4C296.3 340.6 296.9 345.4 296.9 348.4C296.9 351.4 296 356.5 287.9 356.5C280.7 356.5 263.6 355 248.9 355C234.2 355 218.3 356.5 211.1 356.5C202.7 356.5 202.1 351.4 202.1 348.4C202.1 345.4 202.7 340.6 211.4 339.4C218.6 338.5 235.4 337 235.4 326.5V147.1H203.9Z" fill="#F8F4E6"/>
</svg>
