<svg width="500" height="500" viewBox="0 0 500 500" fill="none" xmlns="http://www.w3.org/2000/svg">
<path d="M263.033 312.9C263.033 319.5 262.733 323.4 262.133 326.7C266.033 328.2 278.333 329.7 288.533 330.9C291.533 331.2 293.333 331.8 293.333 335.4C293.333 338.1 292.733 342.3 291.833 345C256.433 342.6 243.533 342.6 209.633 345C206.333 345 206.033 333.3 206.633 331.5C215.633 330.6 225.533 330.3 229.733 328.5C234.533 326.4 236.033 322.5 236.033 312.9V172.5C236.033 162.9 234.833 157.2 229.733 157.2H186.233C181.133 170.4 178.133 186 176.333 195C174.233 195.3 170.633 195.6 166.433 195.6C161.933 195.6 158.933 194.1 158.933 189.9C158.933 177.6 159.833 153.9 161.333 140.4H337.733C339.233 153.9 340.133 177.6 340.133 189.9C340.133 194.1 337.133 195.6 332.633 195.6C328.433 195.6 324.833 195.3 322.733 195C320.933 186 317.933 170.4 312.833 157.2H262.133C262.733 160.5 263.033 164.4 263.033 171V312.9Z" fill="#111111"/>
</svg>
