<svg width="500" height="500" viewBox="0 0 500 500" fill="none" xmlns="http://www.w3.org/2000/svg">
<path d="M249.533 344.1C235.733 344.1 222.833 345 212.033 345C205.433 345 203.033 342.9 203.033 339.9C203.033 336.9 205.133 333.3 210.833 331.2L222.233 326.7C231.833 322.8 234.833 314.7 234.833 295.2V189.3C234.833 170.4 232.733 157.5 223.433 157.5H212.633C200.933 157.5 194.633 160.5 187.433 168.9L167.333 192C161.933 198 158.333 199.8 154.733 199.8C151.133 199.8 149.633 196.2 151.133 191.4L166.133 146.1C168.533 139.2 170.933 137.1 175.433 137.1C182.933 137.1 191.933 139.5 200.633 139.5H298.433C307.133 139.5 316.133 137.1 323.633 137.1C328.133 137.1 330.533 139.2 332.933 146.1L347.933 191.4C349.433 196.2 347.933 199.8 344.333 199.8C340.733 199.8 337.133 198 331.733 192L311.633 168.9C304.433 160.5 298.133 157.5 286.433 157.5H275.633C266.333 157.5 264.233 170.4 264.233 189.3V295.2C264.233 314.7 267.233 322.8 276.833 326.7L288.233 331.2C293.933 333.3 296.033 336.9 296.033 339.9C296.033 342.9 293.633 345 287.033 345C276.233 345 263.333 344.1 249.533 344.1Z" fill="#111111"/>
</svg>
