<svg width="500" height="500" viewBox="0 0 500 500" fill="none" xmlns="http://www.w3.org/2000/svg">
<path d="M215.309 355C177.509 355 151.709 332.2 151.709 298.6C151.709 272.2 168.209 251.8 194.009 234.7C180.209 217.9 174.209 206.8 174.209 192.1C174.209 159.7 200.309 145 240.509 145C259.409 145 271.409 148.3 281.309 152.5L277.409 194.8H265.109C263.009 186.7 260.309 178.3 257.909 170.2C251.309 165.1 242.909 161.5 231.509 161.5C212.909 161.5 200.609 167.5 200.609 184C200.609 198.4 209.009 207.7 237.209 238.3L289.109 294.4C305.909 264.1 311.609 221.5 311.609 183.4L338.909 173.8L344.009 176.8C341.009 206.8 327.809 263.8 299.009 305.2C320.309 327.7 332.909 339.7 347.009 341.8L349.409 342.1V352.3C341.009 352.3 332.609 351.7 324.509 351.7C316.709 351.7 310.109 352.3 302.309 352.3C295.409 343.9 287.909 336.1 280.109 327.4C262.709 344.2 241.409 355 215.309 355ZM181.409 290.8C181.409 314.2 191.309 335.2 224.909 335.2C243.809 335.2 259.109 328.6 271.109 317.8L270.209 316.9L214.709 257.5C210.809 253.3 207.209 249.4 203.609 245.5C191.009 256.6 181.409 268.9 181.409 290.8Z" fill="black"/>
</svg>
