<svg width="500" height="500" viewBox="0 0 500 500" fill="none" xmlns="http://www.w3.org/2000/svg">
<path d="M234.806 163.6H208.106C197.306 163.6 188.606 165.1 175.706 170.2C171.806 179.5 167.906 188.8 165.806 199.6H155.606L158.006 148H341.006L343.406 199.6H333.206C331.106 188.8 327.206 179.5 323.306 170.2C310.406 165.1 301.706 163.6 290.906 163.6H264.206V296.5C264.206 324.7 269.606 338.8 299.606 341.8L302.906 342.1V352.3C285.206 352.3 267.506 351.7 249.806 351.7C231.806 351.7 214.106 352.3 196.106 352.3V342.1L199.406 341.8C233.606 338.5 234.806 337.6 234.806 308.8V163.6Z" fill="black"/>
</svg>
