<svg width="500" height="500" viewBox="0 0 500 500" fill="none" xmlns="http://www.w3.org/2000/svg">
<path d="M224.909 355C188.909 355 167.709 336.2 167.709 305.4C167.709 272.2 181.709 261.8 279.709 247.4V239.8C279.709 205 264.909 191.8 234.509 191.8C209.309 191.8 194.909 200.6 190.109 200.6C186.109 200.6 180.909 190.6 180.909 185.8C180.909 183.4 208.909 163 243.709 163C288.509 163 311.709 187 311.709 231.8V280.2C311.709 300.2 312.509 312.6 314.109 325.8C326.909 330.2 343.309 332.2 344.509 333.4C344.909 333.8 345.309 334.2 345.309 335.8C345.309 339.8 343.709 347.4 342.109 349C340.909 350.2 322.909 351.8 305.709 351.8C294.509 351.8 286.109 347 282.109 329.8C269.309 343 248.909 355 224.909 355ZM200.909 299C200.909 316.2 211.709 326.2 236.509 326.2C251.309 326.2 268.509 321 279.709 310.6C279.709 307.8 279.709 305 279.709 302.2V271.4C208.509 278.6 200.909 283.8 200.909 299Z" fill="#FFFAF2"/>
</svg>
