<svg width="500" height="500" viewBox="0 0 500 500" fill="none" xmlns="http://www.w3.org/2000/svg">
<path d="M247.959 331.2C267.159 331.2 286.359 325.8 301.059 316.2V276.9C301.059 273 299.859 271.2 296.559 269.1C293.859 267 278.559 261.3 274.359 259.5C272.259 258.6 272.259 258.3 272.259 256.8V249.6C272.259 248.7 272.559 248.7 274.359 248.7H354.759C356.559 248.7 356.859 248.7 356.859 249.6V256.8C356.859 258.3 356.859 258.6 354.759 259.5C350.559 261.3 335.259 267 332.559 269.1C329.259 271.2 328.059 273 328.059 276.9V347.4C328.059 348.6 327.759 349.5 326.559 349.5H318.159C316.359 349.5 316.059 348.9 315.159 347.1L307.059 328.8C293.259 339.9 273.459 349.5 245.259 349.5C187.359 349.5 142.959 309.6 142.959 242.1C142.959 174.3 195.759 130.5 253.359 130.5C277.359 130.5 301.959 137.7 322.359 148.5V198.9C322.359 201.3 320.559 201 319.059 201H312.459C309.459 201 309.459 199.2 308.559 197.1C305.259 189.6 298.059 174.9 291.159 161.1C282.159 154.8 269.859 147.9 249.459 147.9C204.459 147.9 174.159 177 174.159 234.3C174.159 299.7 211.659 331.2 247.959 331.2Z" fill="#111111"/>
</svg>
