<svg width="500" height="500" viewBox="0 0 500 500" fill="none" xmlns="http://www.w3.org/2000/svg">
<path d="M308.48 359.5C302.48 359.5 290.18 349.9 275.78 335.2C258.38 349.6 236.18 359.5 209.48 359.5C170.48 359.5 145.28 336.1 145.28 301.3C145.28 269.8 166.28 248.5 191.78 227.5C178.88 206.8 170.48 188.5 170.48 178.3C170.48 150.1 194.48 125.5 226.58 125.5C249.38 125.5 272.18 145 272.18 166C272.18 188.2 246.08 210.7 228.68 222.1C244.58 245.8 265.28 271.9 284.48 292.9C293.48 280.3 299.48 265.9 301.28 250.9C296.48 249.7 291.98 248.5 286.58 247.9C278.78 251.5 278.48 253.3 276.98 253.3C273.98 253.3 264.98 244.9 264.98 241.6C264.98 238.9 275.48 228.7 287.48 228.7C309.98 228.7 316.58 233.2 333.08 234.1C339.38 231.1 343.28 228.1 345.68 228.1C349.58 228.1 357.08 235.9 357.08 239.5C357.08 242.5 340.58 255.4 329.18 255.4C325.58 255.4 321.98 255.1 318.98 254.8C318.08 270.7 311.18 290.5 299.48 308.8C309.68 319.3 318.98 327.4 325.58 331.6C338.18 328 350.78 322.9 352.88 322.9C356.78 322.9 364.28 330.7 364.28 334.3C364.28 341.8 333.08 359.5 308.48 359.5ZM201.38 166C201.38 175 208.28 190 219.08 207.7C230.48 197.8 240.68 181.3 240.68 170.8C240.68 157.9 232.28 146.2 219.08 146.2C208.58 146.2 201.38 154.9 201.38 166ZM226.58 329.8C237.38 329.8 248.78 325.3 259.58 318.1C239.78 295.9 218.18 268 201.08 242.2C188.18 255.7 179.18 268.6 179.18 284.2C179.18 312.4 196.88 329.8 226.58 329.8Z" fill="#F2C94C"/>
</svg>
