<svg width="500" height="500" viewBox="0 0 500 500" fill="none" xmlns="http://www.w3.org/2000/svg">
<path d="M219.52 157.75V184.35C235.97 175.25 268.87 157.75 269.57 157.75C316.82 157.75 320.67 178.4 320.67 230.55V302.3C320.67 320.5 333.27 324.7 340.27 324.7L343.77 338H263.62L267.12 324.7C275.17 324.7 286.72 320.5 286.72 302.3V227.05C286.72 196.6 283.92 188.2 258.72 188.2C247.52 188.2 231.77 194.15 219.52 202.9V301.95C219.52 320.15 231.42 324.35 239.12 324.35L242.62 338H162.47L165.97 324.7C174.02 324.7 185.57 320.15 185.57 301.95V200.45C185.57 182.25 174.37 180.15 165.97 180.15L162.47 166.85L209.02 157.75H219.52Z" fill="#111111"/>
</svg>
