<svg width="500" height="500" viewBox="0 0 500 500" fill="none" xmlns="http://www.w3.org/2000/svg">
<path d="M165.74 146H333.14L336.14 197C336.44 203 327.44 207.5 311.24 207.5C307.34 200 304.04 187.1 302.54 173.6H268.34V307.4C268.34 321.5 276.44 325.4 286.94 326.9C289.04 333.2 284.54 350 269.84 350H225.74C216.14 350 213.14 340.4 213.14 327.2C216.74 323.9 224.84 320.6 229.94 319.4V173.6H196.34C194.84 187.1 191.54 200 187.64 207.5C171.14 207.5 162.44 203.9 162.74 198.8L165.74 146Z" fill="#111111"/>
</svg>
