<svg width="500" height="500" viewBox="0 0 500 500" fill="none" xmlns="http://www.w3.org/2000/svg">
<path d="M235.139 263.9L222.239 263.6V307.7C222.239 319.4 230.339 325.4 240.839 326.9C242.939 333.2 238.439 350 224.039 350H179.939C170.339 350 167.339 340.4 167.339 327.2C170.939 323.9 179.039 320.6 184.139 319.4L184.439 188.6C184.439 176.6 176.339 170.6 165.839 169.1C163.739 162.8 168.239 146 182.639 146H262.439C303.239 146 329.939 164 329.939 205.4C329.939 224.3 320.639 240.5 311.339 250.7C305.939 253.7 295.139 257.3 283.739 259.7C313.139 282.8 323.339 326.9 345.239 326.9C347.339 333.2 344.039 350 329.339 350H305.339C292.139 350 261.539 263.9 235.139 263.9ZM260.339 174.5H222.239V236.9H249.239C265.439 236.9 274.439 235.7 279.839 233.9C285.839 227 289.739 216.2 289.739 205.4C289.739 183.5 280.739 174.5 260.339 174.5Z" fill="#111111"/>
</svg>
