<svg width="500" height="500" viewBox="0 0 500 500" fill="none" xmlns="http://www.w3.org/2000/svg">
<path d="M291.428 157.4C258.128 158 264.428 164.6 264.428 244.7C264.428 325.4 259.328 338 291.428 335C292.628 338.9 292.628 345.8 291.428 350C284.528 350 258.728 347.3 249.128 347.3C238.028 347.3 218.828 350 210.728 350C209.528 346.1 209.528 338.9 210.728 335C241.928 337.7 237.728 325.4 237.728 243.8C237.728 162.2 241.328 155 210.728 155C179.528 155 180.428 155 173.828 210.8C169.928 212 149.528 212 145.628 210.8C145.628 202.7 160.028 148.7 160.028 137.6C174.428 138.8 184.628 139.4 213.428 140C230.828 140.6 245.228 140.9 245.228 140.9C259.628 140.9 275.228 140.6 289.928 140.3C316.028 140 326.228 139.4 340.628 138.2C340.628 149.3 355.028 203.3 355.028 211.4C351.128 212.6 330.128 212.6 326.228 211.4C319.628 155.6 328.028 154.4 291.428 157.4Z" fill="#F5E6DB"/>
</svg>
