<svg width="500" height="500" viewBox="0 0 500 500" fill="none" xmlns="http://www.w3.org/2000/svg">
<path d="M373.77 335C374.97 338.9 374.97 345.8 373.77 350C366.87 350 340.77 347.3 331.17 347.3C320.07 347.3 306.87 350 298.77 350C297.57 346.1 297.57 338.9 298.77 335C329.97 337.7 317.67 325.4 319.77 243.8L320.97 197L259.47 314C257.37 317.9 238.47 318.2 236.07 314.3L169.47 196.1V244.7C169.47 325.4 164.37 338 196.47 335C197.67 338.9 197.67 345.8 196.47 350C189.57 350 167.67 347.3 158.07 347.3C146.97 347.3 133.77 350 125.67 350C124.47 346.1 124.47 338.9 125.67 335C156.87 337.7 152.67 325.4 152.67 243.8C152.67 162.2 156.87 152.3 125.67 155C124.47 151.1 124.47 143.9 125.67 140C133.77 140 158.97 140.3 170.07 140.3C171.87 140.3 173.37 141.2 174.57 143.3L253.77 286.4L331.17 143.9C332.67 141.2 334.47 140 337.17 140H373.77C374.97 144.2 374.97 151.1 373.77 155C341.67 152 347.97 162.2 346.77 244.7C345.57 325.4 341.67 338 373.77 335Z" fill="#111111"/>
</svg>
