<svg width="500" height="500" viewBox="0 0 500 500" fill="none" xmlns="http://www.w3.org/2000/svg">
<path d="M354.055 335.4C354.055 338.1 353.455 342.3 352.555 345C327.655 343.2 302.455 343.2 279.055 345C275.755 345 275.455 333.3 276.055 331.5C293.455 330 307.555 328.8 302.455 315L286.855 273H201.355C195.055 291.9 190.255 309.9 188.455 325.2C197.455 327.9 203.755 329.7 208.255 330.6C211.255 331.2 213.055 331.5 213.055 335.1C213.055 337.8 212.455 342.3 211.555 345C189.655 343.2 168.055 343.2 147.355 345C144.055 345 143.755 333.3 144.355 331.5C155.155 328.2 164.455 323.4 166.555 315.3C183.955 246.9 211.555 188.1 230.155 157.2C225.655 156 219.955 155.1 214.255 154.5C211.255 154.2 209.455 153.6 209.455 150C209.455 147.3 210.055 143.1 210.655 140.4C245.455 142.2 257.455 142.2 289.855 140.4C292.555 140.4 292.855 152.1 292.255 153.9C284.755 154.5 277.855 155.4 272.755 156.9L337.555 327C342.955 329.4 345.955 330.3 349.255 330.9C352.255 331.5 354.055 331.8 354.055 335.4ZM206.455 257.4H281.155L247.855 166.5C237.955 182.1 220.255 219.3 206.455 257.4Z" fill="#111111"/>
</svg>
