<svg width="500" height="500" viewBox="0 0 500 500" fill="none" xmlns="http://www.w3.org/2000/svg">
<path d="M301.821 324.4C302.421 311.5 302.421 297.4 301.821 284.5C301.821 278.8 299.421 276.4 293.721 276.4H269.721C271.521 272.5 272.721 268.3 273.921 264.4C284.421 265 300.621 265 311.121 265C321.321 265 344.721 265 354.921 264.4C353.121 268.3 351.921 272.5 350.721 276.4H327.621C327.021 292.9 327.021 310.9 327.621 327.4C312.021 343 281.721 353.5 246.621 353.5C186.321 353.5 152.121 306.7 152.121 254.5C152.121 190.6 195.021 146.5 259.221 146.5C286.521 146.5 312.321 155.8 324.921 168.4C324.621 179.5 324.621 190.3 324.921 201.4L315.321 203.8C302.721 174.4 282.021 164.5 247.521 164.5C204.621 164.5 176.421 195.4 176.421 240.4C176.421 298 212.721 335.2 258.021 335.2C275.121 335.2 291.021 331.6 301.821 324.4Z" fill="#D1D1C3"/>
</svg>
