<svg width="500" height="500" viewBox="0 0 500 500" fill="none" xmlns="http://www.w3.org/2000/svg">
<path d="M273.962 125.5C296.462 125.5 309.362 127.3 325.562 131.8C335.462 134.8 336.962 140.8 337.862 154.6C339.662 182.8 339.662 187.3 332.162 187.6C325.862 187.6 324.062 181.6 319.262 172C310.862 152.8 295.262 148.9 270.362 148.9C241.262 148.9 180.062 162.4 180.062 235.6C180.062 295.6 201.962 336.1 255.062 336.1C285.962 336.4 309.062 320.8 309.062 303.4V277.6C309.062 265 285.362 265 278.162 263.8C269.462 262.6 267.662 258.1 267.662 254.5C267.662 251.5 268.562 247 277.262 247C285.062 247 303.062 248.2 321.662 248.2C340.262 248.2 345.962 247 353.762 247C362.762 247 363.362 251.5 363.362 254.5C363.362 258.1 361.862 262.6 353.162 263.8C346.862 264.7 337.562 265.6 337.562 275.2L338.162 352C338.162 359.5 334.562 361.6 330.062 361.6C326.162 361.6 322.862 360.4 320.462 352.3C319.262 348.4 316.862 341.8 312.062 341.8C303.662 341.8 293.462 359.5 245.762 359.5C199.262 359.5 150.962 327.4 150.962 253.6C150.962 174.7 205.862 125.5 273.962 125.5Z" fill="#F8F4E6"/>
</svg>
