<svg width="500" height="501" viewBox="0 0 500 501" fill="none" xmlns="http://www.w3.org/2000/svg">
<path d="M301.693 324.169L286.093 284.569H204.493C196.093 306.169 188.893 324.769 185.593 333.769C197.593 337.069 206.893 340.069 217.393 343.069C217.093 349.369 216.193 354.469 214.993 360.169H131.893C131.293 354.169 131.293 349.669 131.593 343.669L143.893 339.469C153.793 336.169 158.893 335.569 163.693 324.169L238.093 141.769C238.393 141.469 241.993 140.269 256.393 135.169L261.493 136.669C268.693 153.469 336.793 326.569 339.493 333.769C350.893 336.769 360.193 340.369 370.093 343.069C369.793 349.369 368.893 354.469 367.693 360.169H268.993C268.393 354.169 268.393 349.669 268.693 343.669L281.893 339.469C303.193 332.569 305.293 334.069 301.693 324.169ZM212.593 263.569H277.693L244.693 180.469C237.193 199.969 224.593 232.969 212.593 263.569Z" fill="#111111"/>
</svg>
