<svg width="500" height="501" viewBox="0 0 500 501" fill="none" xmlns="http://www.w3.org/2000/svg">
<path d="M356.669 141.469C356.669 165.469 357.269 179.869 356.669 201.469C354.269 202.069 351.269 202.369 348.569 202.369C345.869 202.369 342.569 202.069 340.169 201.469L326.669 167.569C326.369 167.269 266.069 163.669 266.069 163.969V333.769C278.369 337.069 287.669 340.069 298.469 343.069C298.169 349.069 296.969 354.169 296.069 360.169H201.869C201.569 354.169 201.269 349.669 201.569 343.669L219.869 339.469C234.569 336.169 233.969 337.369 233.969 319.669C234.269 264.469 234.269 166.069 234.269 163.969C234.269 163.669 171.269 167.269 170.969 167.569L157.469 203.869C155.069 204.469 151.769 204.769 149.069 204.769C146.369 204.769 143.369 204.469 140.969 203.869C140.369 181.369 140.969 166.369 140.969 141.469C150.569 141.169 137.969 141.469 356.669 141.469Z" fill="#0B37D8"/>
</svg>
