<svg width="500" height="500" viewBox="0 0 500 500" fill="none" xmlns="http://www.w3.org/2000/svg">
<path d="M217.188 352.5C170.388 352.5 136.788 332.4 136.788 287.4C136.788 265.8 149.688 244.8 176.688 228.9C170.388 218.1 166.788 208.2 166.788 200.4C166.788 164.7 197.088 139.5 249.888 139.5C272.088 139.5 292.188 152.1 292.188 156.6C292.188 161.1 278.388 178.8 272.988 178.8C268.488 178.8 254.988 162 232.788 162C219.888 162 209.088 163.8 196.188 171C194.688 175.2 194.088 179.4 194.088 186C194.088 217.2 245.988 270.3 292.488 301.8C297.288 288.3 298.788 274.8 298.788 266.1C298.788 240.3 279.588 224.1 243.288 226.8C239.388 227.1 238.788 224.7 241.188 222.6L257.988 207.6C260.088 205.8 263.388 204 266.088 204H374.688C376.788 204 377.088 206.4 375.588 207.6L356.988 224.4C354.588 226.5 352.788 227.1 348.888 227.1C336.588 227.1 326.088 226.5 313.788 224.7C320.688 230.1 325.188 236.7 325.188 249C325.188 270.6 315.888 291 301.788 307.8C320.988 319.8 338.688 327.3 350.388 327.3C367.788 327.3 374.088 318 377.088 318C380.088 318 382.788 321 382.788 324C382.788 327 365.088 352.5 337.488 352.5C322.188 352.5 301.488 343.5 279.588 329.4C260.388 343.8 238.188 352.5 217.188 352.5ZM170.088 278.4C170.088 313.5 189.288 330.6 226.488 330.6C241.788 330 256.188 326.7 268.488 321.9C236.388 299.4 203.688 267.9 184.188 240.6C174.288 251.7 170.088 264.3 170.088 278.4Z" fill="#111111"/>
</svg>
