<svg width="500" height="500" viewBox="0 0 500 500" fill="none" xmlns="http://www.w3.org/2000/svg">
<path d="M303.029 349.5C296.429 349.5 294.329 345 278.429 318.6L195.029 180V306C195.029 318 200.429 322.2 217.829 322.2C222.629 322.2 225.029 323.4 225.029 327V329.4C225.029 339 216.629 345 201.629 345H150.629C142.829 345 141.029 343.2 141.029 338.4V335.4C141.029 321 171.029 331.2 171.029 301.2V177C171.029 165 165.629 160.8 148.229 160.8C143.429 160.8 141.029 159.6 141.029 156V153.6C141.029 144 149.429 138 164.429 138H194.729C207.029 138 212.129 141.6 217.529 150.6L303.029 294.6V176.7C303.029 164.7 297.629 160.5 280.229 160.5C275.429 160.5 273.029 159.3 273.029 155.7V153.3C273.029 143.7 281.429 137.7 296.429 137.7H347.429C355.229 137.7 357.029 139.5 357.029 144.3V147.3C357.029 161.7 327.029 151.5 327.029 181.5V319.2C327.029 340.8 322.229 349.5 303.029 349.5Z" fill="#323122"/>
</svg>
