<svg width="500" height="500" viewBox="0 0 500 500" fill="none" xmlns="http://www.w3.org/2000/svg">
<path d="M206.648 345C198.848 345 197.048 343.2 197.048 338.4V335.4C197.048 321 233.048 331.2 233.048 301.2V159.9L196.448 160.8C180.848 161.1 178.148 167.4 174.548 191.7C173.648 198 170.648 199.5 164.648 199.5H161.948C157.148 199.5 155.648 197.1 154.448 186.9C150.848 157.2 150.248 153.3 150.248 146.1C150.248 141 151.448 138 166.148 138H332.948C347.648 138 348.848 141 348.848 146.1C348.848 153.3 348.248 157.2 344.648 186.9C343.448 197.1 341.948 199.5 337.148 199.5H334.448C328.448 199.5 325.448 198 324.548 191.7C320.948 167.4 318.248 161.1 302.648 160.8L266.048 159.9V306C266.048 318 272.648 322.2 294.848 322.2C299.648 322.2 302.048 323.4 302.048 327V329.4C302.048 339 293.648 345 278.648 345H206.648Z" fill="#323122"/>
</svg>
