<svg width="500" height="500" viewBox="0 0 500 500" fill="none" xmlns="http://www.w3.org/2000/svg">
<path d="M297.805 345C281.605 345 265.705 344.4 249.505 344.4C233.305 344.4 217.405 345 201.205 345L201.805 333.3L224.005 328.2C230.005 325.5 232.405 316.2 232.405 302.1V180.9C232.405 167.4 231.205 154.8 224.905 154.8L196.105 155.1C182.605 155.1 175.105 159.6 170.905 168.9L165.505 192.3L149.905 192.9C150.805 173.7 151.405 153.6 151.405 134.1C184.105 134.1 215.905 135 249.205 135C282.205 135 314.305 134.1 347.605 134.1C347.605 153.6 348.205 173.7 349.105 192.9L333.505 192.3L328.105 168.9C323.605 159.9 317.605 155.1 303.805 155.1L273.805 154.8C267.805 154.8 266.605 167.4 266.605 180.9V302.1C266.605 316.2 269.005 325.5 275.005 328.2L297.205 333.3L297.805 345Z" fill="#EF4123"/>
</svg>
