<svg width="500" height="500" viewBox="0 0 500 500" fill="none" xmlns="http://www.w3.org/2000/svg">
<path d="M194.339 167.7C194.339 201.6 233.939 221.1 307.439 279C321.239 255.9 311.039 234.9 294.539 217.8C292.439 207.6 334.139 199.5 337.139 213.6C341.639 234.6 342.239 260.4 322.439 291C324.839 293.1 326.939 294.9 329.339 296.7C357.239 318.6 362.339 318.9 372.539 318.6C377.939 327 371.339 344.4 357.839 348C345.839 348 337.739 336.3 325.739 326.7C319.439 321.6 313.439 316.8 307.439 312.3C288.839 333 257.339 351 220.739 351C162.839 351 134.639 318 134.639 288.3V287.1C134.639 257.4 160.139 235.8 193.439 223.5C177.239 207.9 169.139 194.4 169.139 178.8V177.3C169.139 136.5 202.739 113.4 238.739 113.4C250.439 113.4 265.739 113.4 279.839 117C282.539 122.4 275.639 149.1 269.039 153H268.439C257.339 141.6 238.139 135.9 226.139 135.6C208.139 135.9 194.339 146.4 194.339 167.7ZM164.939 281.1C164.939 308.7 195.539 326.4 233.039 326.4C257.339 326.4 278.339 312.3 291.839 300.3C256.439 273.3 228.839 253.5 208.439 237C178.439 244.2 164.939 258.3 164.939 280.5V281.1Z" fill="#E7E6D8"/>
</svg>
