<svg width="500" height="500" viewBox="0 0 500 500" fill="none" xmlns="http://www.w3.org/2000/svg">
<path d="M198.658 345C196.258 345 195.058 342 195.358 339.9L196.258 335.1C196.858 331.8 198.058 329.7 201.058 329.1L225.058 325.2C230.458 324 234.958 321.3 234.958 318.6C234.958 311.4 236.458 272.1 236.458 232.5C236.458 192 234.958 151.5 234.958 144.9C234.958 141.3 231.358 137.1 222.658 137.1C201.658 137.1 177.058 138 172.858 151.5L165.658 179.1C165.058 181.8 161.758 182.1 158.458 181.8L153.358 181.2C151.258 180.9 149.158 178.8 149.458 176.4L153.058 124.8C153.058 122.7 155.758 120 159.658 120H345.958C349.858 120 352.558 122.7 352.558 124.8L356.158 176.4C356.458 178.8 354.358 180.9 352.258 181.2L347.158 181.8C343.858 182.1 340.558 181.8 339.958 179.1L332.758 151.5C328.558 138 298.558 137.1 277.558 137.1C268.558 137.1 264.958 141.3 264.958 144.9C264.958 151.5 263.458 191.4 263.458 231.6C263.458 271.5 264.958 311.4 264.958 318.6C264.958 321.3 269.458 324 274.858 325.2L298.858 329.1C301.858 329.7 303.058 331.8 303.658 335.1L304.558 339.9C304.858 342 303.658 345 301.258 345H198.658Z" fill="#111111"/>
</svg>
