<svg width="500" height="500" viewBox="0 0 500 500" fill="none" xmlns="http://www.w3.org/2000/svg">
<path d="M303.765 300.3C320.265 321.3 329.565 330.9 343.365 337.2C347.265 339 348.765 341.1 348.765 344.1C348.765 347.1 346.065 349.5 339.765 349.5C304.665 349.5 294.765 344.4 270.165 308.4L237.465 260.4C232.365 252.9 230.865 248.4 230.865 241.2C230.865 237.9 232.365 236.4 235.965 236.4C240.765 236.4 247.065 237.6 254.265 237.6C271.665 237.6 282.765 223.2 282.765 194.7C282.765 169.8 267.165 156.6 241.365 156.6C223.665 156.9 216.765 162.6 216.765 189.3V295.2C216.765 314.1 219.765 323.1 228.165 327.3L235.965 331.2C241.665 334.2 243.765 336.9 243.765 339.9C243.765 342.9 241.365 345 234.765 345C223.965 345 215.865 344.1 202.065 344.1C188.265 344.1 180.165 345 169.365 345C162.765 345 160.365 342.9 160.365 339.9C160.365 336.9 162.465 334.2 168.165 331.2L175.965 327.3C184.365 323.1 187.365 314.1 187.365 295.2V189.3C187.365 170.4 184.365 161.4 175.965 157.2L168.165 153.3C162.465 150.3 160.365 147.6 160.365 144.6C160.365 141.6 162.765 139.5 169.365 139.5C180.165 139.5 188.265 140.4 202.065 140.4C217.665 140.4 226.965 137.1 250.365 137.1C291.165 137.1 315.765 154.5 315.765 189.6C315.765 223.2 301.965 247.8 270.465 253.2C268.365 253.8 268.665 255.3 270.165 257.4L303.765 300.3Z" fill="#3C0801"/>
</svg>
